<?xml version="1.0" encoding="utf-8" ?>
<svg baseProfile="full" height="1758px" version="1.1" width="2800px" xmlns="http://www.w3.org/2000/svg" xmlns:ev="http://www.w3.org/2001/xml-events" xmlns:xlink="http://www.w3.org/1999/xlink"><defs /><path d="M 987,180 L 972,189 L 949,206 L 922,226 L 894,245 L 880,256 L 856,276 L 823,306 L 797,337 L 773,369 L 752,398 L 734,424 L 720,449 L 709,477 L 699,505 L 692,534 L 686,563 L 682,592 L 680,619 L 679,647 L 680,680 L 682,718 L 687,757 L 694,785 L 703,810 L 717,833 L 735,866 L 757,899 L 782,932 L 807,959 L 837,983 L 872,1010 L 912,1035 L 955,1059 L 1000,1081 L 1047,1101 L 1096,1120 L 1146,1131 L 1196,1141 L 1246,1145 L 1292,1148 L 1390,1148 L 1445,1144 L 1500,1141 L 1556,1134 L 1610,1123 L 1661,1109 L 1709,1094 L 1755,1080 L 1805,1056 L 1851,1026 L 1892,997 L 1927,973 L 1954,952 L 1981,931 L 2011,907 L 2038,878 L 2060,846 L 2075,815 L 2086,782 L 2091,749 L 2093,717 L 2092,687 L 2088,662 L 2078,639 L 2062,603 L 2041,559 L 2021,512 L 1999,477 L 1973,442 L 1942,407 L 1909,369 L 1874,333 L 1838,295 L 1800,256 L 1763,219 L 1730,191 L 1697,172 L 1663,158 L 1624,145 L 1580,128 L 1536,110 L 1498,97 L 1462,91 L 1428,86 L 1393,82 L 1361,77 L 1329,72 L 1297,66 L 1268,63 L 1243,64 L 1224,65 L 1205,66 L 1185,69 L 1159,78 L 1133,91 L 1110,109 L 1090,129 L 1074,149 L 1060,169 L 1048,188" fill="none" stroke="#000" stroke-width="6" /><path d="M 1063,583 L 1056,576 L 1054,570 L 1055,560 L 1060,542 L 1068,515 L 1077,483 L 1086,450 L 1096,422 L 1106,397 L 1116,377 L 1127,361 L 1137,349 L 1147,340" fill="none" stroke="#000" stroke-width="6" /><path d="M 1593,324 L 1602,327 L 1617,333 L 1635,342 L 1655,353 L 1674,367 L 1692,383 L 1709,398 L 1726,416 L 1743,437" fill="none" stroke="#000" stroke-width="6" /><path d="M 1078,785 L 1086,799 L 1102,817 L 1125,840 L 1152,863 L 1179,883 L 1209,901 L 1241,915 L 1273,926 L 1303,932 L 1333,934 L 1364,931 L 1394,926 L 1425,918 L 1459,909 L 1492,897 L 1520,885 L 1543,872 L 1561,856 L 1577,842 L 1591,822 L 1606,800 L 1620,775 L 1633,750 L 1644,726 L 1654,700 L 1663,671 L 1671,644 L 1678,619 L 1682,600 L 1685,585 L 1687,578 L 1688,574 L 1688,571 L 1688,568" fill="none" stroke="#000" stroke-width="6" /></svg>